<svg version="1.1" xmlns="http://www.w3.org/2000/svg" width="448" height="448" viewBox="0 0 448 448">
<path d="M31.75 224c0-27.75 6-54.25 16.75-78.25l91.75 251.25c-64.25-31.25-108.5-97-108.5-173zM353.75 214.25c0 16.5-6.75 35.5-14.75 62.25l-19 64-69.5-206.5s11.5-0.75 22-2c10.25-1.25 9-16.5-1.25-15.75-31.25 2.25-51.25 2.5-51.25 2.5s-18.75-0.25-50.5-2.5c-10.5-0.75-11.75 15-1.25 15.75 9.75 1 20 2 20 2l30 82-42 126-70-208s11.5-0.75 22-2c10.25-1.25 9-16.5-1.25-15.75-31 2.25-51.25 2.5-51.25 2.5-3.5 0-7.75-0.25-12.25-0.25 34.25-52.25 93.25-86.75 160.5-86.75 50 0 95.5 19.25 129.75 50.5h-2.5c-18.75 0-32.25 16.25-32.25 34 0 15.75 9.25 29 19 45 7.5 12.75 15.75 29.25 15.75 53zM227.25 240.75l59.25 161.75c0.25 1 0.75 2 1.25 2.75-20 7-41.25 11-63.75 11-18.75 0-37-2.75-54.25-8zM392.5 131.75c15 27.5 23.75 58.75 23.75 92.25 0 71-38.5 132.75-95.75 166l58.75-169.5c9.75-28 14.75-49.5 14.75-69 0-7-0.5-13.5-1.5-19.75zM224 0c123.5 0 224 100.5 224 224s-100.5 224-224 224-224-100.5-224-224 100.5-224 224-224zM224 437.75c117.75 0 213.75-96 213.75-213.75s-96-213.75-213.75-213.75-213.75 96-213.75 213.75 96 213.75 213.75 213.75z"></path>
</svg>
